<?xml version="1.0" encoding="UTF-8" standalone="no"?>
<svg
   xmlns:dc="http://purl.org/dc/elements/1.1/"
   xmlns:cc="http://creativecommons.org/ns#"
   xmlns:rdf="http://www.w3.org/1999/02/22-rdf-syntax-ns#"
   xmlns:svg="http://www.w3.org/2000/svg"
   xmlns="http://www.w3.org/2000/svg"
   xmlns:sodipodi="http://sodipodi.sourceforge.net/DTD/sodipodi-0.dtd"
   xmlns:inkscape="http://www.inkscape.org/namespaces/inkscape"
   version="1.1"
   id="svg2"
   sodipodi:docname="saugstelle.svg"
   width="172.95758"
   height="48.205326"
   inkscape:version="0.92.5 (2060ec1f9f, 2020-04-08)">
  <metadata
     id="metadata8">
    <rdf:RDF>
      <cc:Work
         rdf:about="">
        <dc:format>image/svg+xml</dc:format>
        <dc:type
           rdf:resource="http://purl.org/dc/dcmitype/StillImage" />
        <dc:title></dc:title>
      </cc:Work>
    </rdf:RDF>
  </metadata>
  <defs
     id="defs6" />
  <sodipodi:namedview
     pagecolor="#ffffff"
     bordercolor="#666666"
     borderopacity="1"
     objecttolerance="10"
     gridtolerance="10"
     guidetolerance="10"
     inkscape:pageopacity="0"
     inkscape:pageshadow="2"
     inkscape:window-width="1680"
     inkscape:window-height="993"
     id="namedview4"
     showgrid="false"
     fit-margin-top="0"
     fit-margin-left="0"
     fit-margin-right="0"
     fit-margin-bottom="0"
     inkscape:zoom="1.18"
     inkscape:cx="108.23663"
     inkscape:cy="18.345878"
     inkscape:window-x="0"
     inkscape:window-y="0"
     inkscape:window-maximized="1"
     inkscape:current-layer="g854"
     inkscape:snap-bbox="true"
     inkscape:object-paths="true"
     inkscape:bbox-nodes="true"
     inkscape:bbox-paths="false"
     inkscape:snap-page="true" />
  <g
     inkscape:groupmode="layer"
     id="layer2"
     inkscape:label="bg"
     transform="translate(33.863144,-120.60384)"
     style="display:inline">
    <rect
       y="120.60384"
       x="-33.863144"
       height="48.205322"
       width="172.95757"
       id="rect1070-3"
       style="display:inline;opacity:1;vector-effect:none;fill:#ffffff;fill-opacity:1;stroke:none;stroke-width:5.00000048;stroke-linecap:butt;stroke-linejoin:miter;stroke-miterlimit:4;stroke-dasharray:none;stroke-dashoffset:0;stroke-opacity:1" />
  </g>
  <g
     inkscape:groupmode="layer"
     id="layer3"
     inkscape:label="inhalt"
     style="display:none"
     transform="translate(33.863144,-120.60384)">
    <text
       transform="scale(1.0166196,0.9836521)"
       id="text1074"
       y="154.68291"
       x="-19.985651"
       style="font-style:normal;font-weight:normal;font-size:27.44482231px;line-height:1.25;font-family:sans-serif;letter-spacing:0px;word-spacing:0px;display:inline;fill:#000000;fill-opacity:1;stroke:none;stroke-width:1.00718951"
       xml:space="preserve"><tspan
         style="stroke-width:1.00718951"
         y="154.68291"
         x="-19.985651"
         id="tspan1072"
         sodipodi:role="line">Saugstelle</tspan></text>
  </g>
  <g
     transform="translate(33.863144,-120.60384)"
     style="display:inline"
     inkscape:label="inhalt als pfad"
     id="g854"
     inkscape:groupmode="layer">
    <g
       aria-label="Saugstelle"
       transform="scale(1.0166196,0.9836521)"
       style="font-style:normal;font-weight:normal;font-size:27.44482231px;line-height:1.25;font-family:sans-serif;letter-spacing:0px;word-spacing:0px;display:inline;fill:#000000;fill-opacity:1;stroke:none;stroke-width:1.00718951"
       id="text852">
      <path
         d="m -5.2983828,135.33216 v 2.63996 q -1.5410911,-0.73704 -2.9079719,-1.09887 -1.3668808,-0.36182 -2.6399563,-0.36182 -2.21113,0 -3.417202,0.85765 -1.19267,0.85765 -1.19267,2.43895 0,1.32668 0.790646,2.01012 0.804048,0.67004 3.028579,1.08546 l 1.634897,0.33502 q 3.0285792,0.57623 4.4624639,2.03692 1.4472856,1.44729 1.4472856,3.88623 0,2.90797 -1.9565157,4.40886 -1.9431148,1.50089 -5.7087378,1.50089 -1.420484,0 -3.028579,-0.32162 -1.594694,-0.32162 -3.309995,-0.95146 v -2.78736 q 1.648297,0.92465 3.229591,1.39368 1.581293,0.46903 3.108983,0.46903 2.3183374,0 3.5780119,-0.91125 1.2596744,-0.91126 1.2596744,-2.59976 0,-1.47408 -0.9112538,-2.30493 -0.8978531,-0.83085 -2.9615755,-1.24628 l -1.648297,-0.32162 q -3.028579,-0.60303 -4.382059,-1.88951 -1.35348,-1.28647 -1.35348,-3.57801 0,-2.65336 1.86271,-4.18105 1.876111,-1.52769 5.159305,-1.52769 1.4070832,0 2.8677695,0.25462 1.4606864,0.25461 2.9883767,0.76384 z"
         style="stroke-width:1.00718951"
         id="path856" />
      <path
         d="m 6.8427351,147.13826 q -2.9883766,0 -4.1408448,0.68344 -1.1524681,0.68344 -1.1524681,2.33174 0,1.31328 0.8576507,2.09052 0.8710515,0.76385 2.3585394,0.76385 2.0503212,0 3.2831941,-1.44729 1.2462737,-1.46068 1.2462737,-3.87283 v -0.54943 z m 4.9180909,-1.01846 v 8.56311 H 9.2950801 v -2.27814 q -0.8442499,1.36688 -2.1039244,2.02352 -1.2596745,0.64324 -3.0821822,0.64324 -2.3049362,0 -3.67181703,-1.28648 -1.35348001,-1.29987 -1.35348001,-3.4708 0,-2.53275 1.68849981,-3.81923 1.70190063,-1.28647 5.06549943,-1.28647 h 3.4574044 v -0.24122 q 0,-1.7019 -1.1256666,-2.62655 -1.1122657,-0.93806 -3.1357853,-0.93806 -1.2864761,0 -2.5059482,0.30822 -1.219472,0.30822 -2.34513858,0.92465 v -2.27813 q 1.35347998,-0.52263 2.62655528,-0.77725 1.2730752,-0.26801 2.4791465,-0.26801 3.2563925,0 4.8644878,1.6885 1.608095,1.6885 1.608095,5.1191 z"
         style="stroke-width:1.00718951"
         id="path858" />
      <path
         d="m 16.585112,148.75976 v -9.08574 h 2.465746 v 8.99193 q 0,2.13073 0.830849,3.20279 0.830849,1.05866 2.492547,1.05866 1.996718,0 3.149186,-1.27307 1.165869,-1.27308 1.165869,-3.47081 v -8.5095 h 2.465746 v 15.00889 h -2.465746 v -2.30494 q -0.897853,1.36688 -2.090523,2.03692 -1.17927,0.65664 -2.747163,0.65664 -2.586353,0 -3.926432,-1.60809 -1.340079,-1.6081 -1.340079,-4.70368 z m 6.204567,-9.44756 z"
         style="stroke-width:1.00718951"
         id="path860" />
      <path
         d="m 44.110341,147.00425 q 0,-2.68016 -1.112266,-4.15424 -1.098865,-1.47409 -3.095583,-1.47409 -1.983317,0 -3.095583,1.47409 -1.098865,1.47408 -1.098865,4.15424 0,2.66676 1.098865,4.14085 1.112266,1.47409 3.095583,1.47409 1.996718,0 3.095583,-1.47409 1.112266,-1.47409 1.112266,-4.14085 z m 2.465745,5.81595 q 0,3.83262 -1.7019,5.69533 -1.701901,1.87611 -5.212908,1.87611 -1.299877,0 -2.452345,-0.20101 Q 36.056465,160.00302 34.971,159.601 v -2.39874 q 1.085465,0.58963 2.144127,0.87105 1.058663,0.28141 2.157528,0.28141 2.425543,0 3.631614,-1.27307 1.206072,-1.25968 1.206072,-3.81923 v -1.21947 q -0.763845,1.32668 -1.956516,1.98332 -1.19267,0.65664 -2.854369,0.65664 -2.760563,0 -4.449063,-2.10393 -1.688499,-2.10392 -1.688499,-5.57473 0,-3.4842 1.688499,-5.58813 1.6885,-2.10392 4.449063,-2.10392 1.661699,0 2.854369,0.65664 1.192671,0.65664 1.956516,1.98331 v -2.27813 h 2.465745 z"
         style="stroke-width:1.00718951"
         id="path862" />
      <path
         d="m 61.223151,140.11625 v 2.33173 q -1.045262,-0.53603 -2.170929,-0.80404 -1.125666,-0.26802 -2.331738,-0.26802 -1.835908,0 -2.760563,0.56283 -0.911254,0.56284 -0.911254,1.6885 0,0.85765 0.656639,1.35348 0.656639,0.48243 2.639956,0.92466 l 0.84425,0.18761 q 2.626555,0.56283 3.72542,1.59469 1.112266,1.01846 1.112266,2.85437 0,2.09053 -1.661698,3.31 -1.648298,1.21947 -4.542869,1.21947 -1.206071,0 -2.519349,-0.24121 -1.299876,-0.22782 -2.747162,-0.69685 v -2.54615 q 1.366881,0.71025 2.693559,1.07207 1.326679,0.34842 2.626556,0.34842 1.742103,0 2.680158,-0.58964 0.938055,-0.60303 0.938055,-1.6885 0,-1.00506 -0.68344,-1.54109 -0.67004,-0.53603 -2.961575,-1.03186 l -0.857651,-0.20101 q -2.291535,-0.48243 -3.309995,-1.47409 -1.018461,-1.00506 -1.018461,-2.74716 0,-2.11733 1.500889,-3.26979 1.500889,-1.15247 4.261452,-1.15247 1.366881,0 2.572952,0.20101 1.206071,0.20101 2.224532,0.60304 z"
         style="stroke-width:1.00718951"
         id="path864" />
      <path
         d="m 68.392574,135.41257 v 4.26145 h 5.0789 v 1.91631 h -5.0789 v 8.14768 q 0,1.83591 0.49583,2.35854 0.50923,0.52264 2.050321,0.52264 h 2.532749 v 2.06372 h -2.532749 q -2.854369,0 -3.939833,-1.05867 -1.085464,-1.07206 -1.085464,-3.88623 v -8.14768 h -1.809107 v -1.91631 h 1.809107 v -4.26145 z"
         style="stroke-width:1.00718951"
         id="path866" />
      <path
         d="m 89.552423,146.56203 v 1.20607 H 78.215352 q 0.16081,2.54615 1.527691,3.88623 1.380281,1.32668 3.832626,1.32668 1.420484,0 2.747163,-0.34842 1.340079,-0.34842 2.653357,-1.04527 v 2.33174 q -1.326679,0.56284 -2.720361,0.85765 -1.393683,0.29482 -2.827567,0.29482 -3.591413,0 -5.695337,-2.09052 -2.090524,-2.09053 -2.090524,-5.65514 0,-3.68522 1.983318,-5.84274 1.996718,-2.17093 5.373717,-2.17093 3.028579,0 4.784083,1.95651 1.768905,1.94312 1.768905,5.29332 z m -2.465746,-0.72365 q -0.0268,-2.02352 -1.139067,-3.22959 -1.098865,-1.20607 -2.921373,-1.20607 -2.063722,0 -3.309996,1.16587 -1.232873,1.16587 -1.420484,3.2832 z"
         style="stroke-width:1.00718951"
         id="path868" />
      <path
         d="m 93.599466,133.83127 h 2.465746 v 20.85164 h -2.465746 z"
         style="stroke-width:1.00718951"
         id="path870" />
      <path
         d="m 101.22451,133.83127 h 2.46575 v 20.85164 h -2.46575 z"
         style="stroke-width:1.00718951"
         id="path872" />
      <path
         d="m 121.68752,146.56203 v 1.20607 h -11.33707 q 0.16081,2.54615 1.52769,3.88623 1.38029,1.32668 3.83263,1.32668 1.42048,0 2.74716,-0.34842 1.34008,-0.34842 2.65336,-1.04527 v 2.33174 q -1.32668,0.56284 -2.72036,0.85765 -1.39368,0.29482 -2.82757,0.29482 -3.59141,0 -5.69533,-2.09052 -2.09053,-2.09053 -2.09053,-5.65514 0,-3.68522 1.98332,-5.84274 1.99672,-2.17093 5.37372,-2.17093 3.02858,0 4.78408,1.95651 1.7689,1.94312 1.7689,5.29332 z m -2.46574,-0.72365 q -0.0268,-2.02352 -1.13907,-3.22959 -1.09886,-1.20607 -2.92137,-1.20607 -2.06372,0 -3.31,1.16587 -1.23287,1.16587 -1.42048,3.2832 z"
         style="stroke-width:1.00718951"
         id="path874" />
    </g>
  </g>
  <g
     inkscape:groupmode="layer"
     id="layer1"
     inkscape:label="schild"
     transform="translate(33.882929,-120.60384)"
     style="display:inline">
    <rect
       y="123.10384"
       x="-31.382929"
       height="43.205326"
       width="167.95758"
       id="rect1070"
       style="opacity:1;vector-effect:none;fill:none;fill-opacity:1;stroke:#b10000;stroke-width:5.00000048;stroke-linecap:butt;stroke-linejoin:miter;stroke-miterlimit:4;stroke-dasharray:none;stroke-dashoffset:0;stroke-opacity:1" />
  </g>
</svg>
